<svg width="45" height="45" viewBox="0 0 45 45" fill="none" xmlns="http://www.w3.org/2000/svg">
<path fill-rule="evenodd" clip-rule="evenodd" d="M45 22.5C45 10.0746 34.9253 0 22.5 0C10.0746 0 0 10.0746 0 22.5C0 33.7294 8.22678 43.0381 18.9847 44.7281V29.0055H13.2703V22.5H18.9847V17.5418C18.9847 11.9033 22.345 8.78666 27.4835 8.78666C29.9451 8.78666 32.5206 9.22644 32.5206 9.22644V14.7637H29.6825C26.8887 14.7637 26.0153 16.4977 26.0153 18.279V22.4998H32.2547L31.2581 29.0053H26.0151V44.7278C36.7731 43.0412 44.9997 33.7325 44.9997 22.4998L45 22.5Z" fill="#757575"/>
</svg>
