<svg width="45" height="45" viewBox="0 0 45 45" fill="none" xmlns="http://www.w3.org/2000/svg">
<path d="M22.5196 11.0356C22.1239 11.0356 21.7325 11.0557 21.3469 11.0952C20.9613 11.1347 20.5809 11.1933 20.2071 11.2701C19.8333 11.3469 19.4661 11.4421 19.1063 11.5544L18.0502 11.9422L17.0446 12.4277L16.0958 13.0051L15.2092 13.6682L14.391 14.4114L13.6472 15.2288L12.9833 16.1144L12.4052 17.0624L11.9194 18.0668C11.7733 18.4103 11.6434 18.7625 11.531 19.1221C11.4186 19.4816 11.3234 19.8486 11.2464 20.222C11.1694 20.5954 11.1109 20.9752 11.0712 21.3606C11.0316 21.746 11.0117 22.1369 11.0117 22.5322C11.0117 22.9275 11.0319 23.3185 11.0712 23.7038C11.1104 24.0861 11.1688 24.4662 11.2464 24.8426C11.3234 25.2174 11.4186 25.583 11.531 25.9425C11.6434 26.3021 11.7732 26.6541 11.9194 26.9978L12.4052 28.0022L12.9833 28.95L13.6472 29.8358L14.391 30.6532L15.2092 31.3964L16.0958 32.0596L17.0446 32.6367L18.0502 33.1224L19.1063 33.5102L20.2071 33.7946C20.5838 33.8721 20.9643 33.9305 21.3469 33.9696C21.7365 34.0092 22.128 34.0292 22.5196 34.0289C22.9153 34.0289 23.3067 34.0089 23.6922 33.9696C24.0749 33.9305 24.4553 33.8721 24.832 33.7946L25.933 33.5102L26.9891 33.1224L27.9945 32.6367L28.9435 32.0596L29.8301 31.3964L30.6484 30.6532L31.3924 29.8358L32.0561 28.95L32.6343 28.0022L33.1202 26.9978L33.5083 25.9425C33.6208 25.583 33.7161 25.2159 33.793 24.8426L33.968 23.7037C34.0077 23.3183 34.0277 22.9274 34.0277 22.5321C34.0277 22.1368 34.0077 21.7458 33.968 21.3605C33.9289 20.9782 33.8705 20.5982 33.793 20.2219C33.7161 19.8471 33.6208 19.4816 33.5083 19.1219L33.1202 18.0667L32.6343 17.0622L32.0561 16.1142L31.3924 15.2287L30.6484 14.4112L29.8301 13.6681L28.9435 13.005L27.9945 12.4276L26.9891 11.9421L25.933 11.5542L24.832 11.27L23.6922 11.0951C23.3027 11.0553 22.9113 11.0354 22.5196 11.0354V11.0356ZM22.5196 15.0038C22.7813 15.0038 23.0395 15.0167 23.2938 15.0424L24.0434 15.1559L24.7676 15.3404L25.461 15.5922L26.1202 15.908L26.7401 16.2835L27.3197 16.7156L27.8539 17.2002L28.339 17.7339L28.7715 18.3129L29.1475 18.9336L29.4632 19.5925C29.5581 19.8179 29.6422 20.049 29.7155 20.2853C29.7887 20.5216 29.8503 20.7631 29.9 21.009C29.9497 21.2549 29.9865 21.5052 30.0135 21.7594L30.0521 22.5329C30.0521 22.7943 30.0392 23.0523 30.0135 23.3067C29.9878 23.561 29.9501 23.8112 29.9 24.057C29.85 24.3028 29.7883 24.5443 29.7155 24.7807L29.4632 25.4736L29.1475 26.1324L28.7715 26.753L28.339 27.3321L27.8539 27.8658L27.3197 28.3505L26.7401 28.7825L26.1202 29.1581L25.461 29.4738L24.7676 29.7256L24.0434 29.9102L23.2938 30.0235C23.0365 30.0492 22.7781 30.0622 22.5195 30.0621C22.2608 30.0622 22.0024 30.0492 21.7451 30.0235L20.9954 29.9102C20.7493 29.8603 20.5077 29.7986 20.2711 29.7256L19.5777 29.4738L18.9185 29.1581L18.2986 28.7825L17.719 28.3505L17.1848 27.8658L16.6997 27.3321L16.2672 26.753L15.8912 26.1324L15.5755 25.4736L15.3232 24.7807L15.1387 24.057L15.0252 23.3067C14.9994 23.0496 14.9865 22.7913 14.9866 22.5329C14.9865 22.2746 14.9994 22.0164 15.0252 21.7594C15.0507 21.5052 15.0886 21.2548 15.1387 21.009C15.1882 20.7649 15.2498 20.5234 15.3233 20.2854L15.5756 19.5926L15.8913 18.9338L16.2673 18.313L16.6998 17.7341L17.1849 17.2004L17.7192 16.7157L18.2987 16.2837L18.9186 15.9081L19.5778 15.5924C19.8048 15.4971 20.0362 15.413 20.2714 15.3405L20.9957 15.156C21.2418 15.1061 21.4923 15.0681 21.7453 15.0426C22.0027 15.0168 22.2612 15.0039 22.5198 15.0039L22.5196 15.0038Z" fill="#757575"/>
<path d="M34.4942 7.76489C34.403 7.76489 34.3117 7.76952 34.2208 7.77874C34.1298 7.78792 34.0395 7.80167 33.9498 7.81995C33.8605 7.83824 33.7717 7.86099 33.6845 7.88814C33.597 7.91533 33.5114 7.94689 33.427 7.98271C33.343 8.01858 33.2608 8.05867 33.1805 8.1028C33.1002 8.14686 33.0223 8.19492 32.947 8.24683C32.8714 8.29877 32.7986 8.35449 32.7289 8.41377C32.6589 8.47299 32.592 8.53567 32.5283 8.60161C32.4648 8.66758 32.4045 8.73674 32.3477 8.80877C32.2908 8.88083 32.2377 8.95567 32.1883 9.03308C32.1389 9.11042 32.0936 9.19021 32.052 9.27211C32.0108 9.35408 31.9733 9.43808 31.9402 9.52383C31.907 9.60952 31.8783 9.69686 31.8536 9.78546C31.8292 9.87408 31.8092 9.96386 31.7939 10.0545C31.7783 10.1451 31.7673 10.2364 31.7608 10.3281C31.7561 10.393 31.7539 10.4582 31.7539 10.5233C31.7539 10.6153 31.7583 10.7072 31.7677 10.7988C31.7767 10.8903 31.7905 10.9813 31.8086 11.0714C31.8267 11.1615 31.8492 11.2507 31.8761 11.3385C31.9033 11.4264 31.9345 11.5129 31.9702 11.5976C32.0058 11.6823 32.0455 11.7652 32.0895 11.846C32.1333 11.9267 32.1811 12.0052 32.2327 12.0811C32.2842 12.157 32.3395 12.2302 32.3983 12.3005C32.4573 12.3709 32.5195 12.4383 32.5852 12.5024C32.6508 12.5664 32.7192 12.6271 32.7911 12.6843C32.8627 12.7415 32.937 12.795 33.0139 12.8447C33.0908 12.8945 33.1702 12.9403 33.2514 12.982C33.333 13.0237 33.4164 13.0614 33.5014 13.0947C33.5867 13.128 33.6733 13.1571 33.7614 13.1816C33.8495 13.2062 33.9386 13.2263 34.0286 13.2419C34.1186 13.2575 34.2095 13.2687 34.3005 13.2752C34.3652 13.2798 34.4298 13.2821 34.4945 13.2821C34.5858 13.2821 34.6773 13.2776 34.7683 13.2684C34.8589 13.2592 34.9495 13.2455 35.0389 13.2272C35.1286 13.209 35.217 13.1862 35.3045 13.159C35.3917 13.1318 35.4777 13.1003 35.5617 13.0645C35.6458 13.0286 35.7283 12.9886 35.8083 12.9445C35.8886 12.9004 35.9664 12.8523 36.042 12.8003C36.1173 12.7484 36.1902 12.6928 36.2602 12.6335C36.3298 12.5743 36.3967 12.5116 36.4605 12.4456C36.5242 12.3796 36.5845 12.3104 36.6411 12.2384C36.698 12.1663 36.7511 12.0915 36.8005 12.0141C36.8498 11.9367 36.8955 11.8569 36.9367 11.7749C36.9783 11.6929 37.0158 11.6089 37.0489 11.5232C37.082 11.4375 37.1108 11.3502 37.1352 11.2615C37.1595 11.173 37.1795 11.0832 37.1952 10.9925C37.2108 10.902 37.2217 10.8106 37.228 10.7189C37.2327 10.654 37.2352 10.5889 37.2352 10.5237C37.2352 10.4318 37.2305 10.3399 37.2214 10.2484C37.2123 10.1569 37.1986 10.0659 37.1805 9.97577C37.1623 9.88564 37.1395 9.79649 37.1127 9.70864C37.0855 9.62077 37.0542 9.5343 37.0186 9.44958C36.983 9.36483 36.9433 9.28192 36.8995 9.20117C36.8558 9.12046 36.808 9.04199 36.7564 8.96605C36.7045 8.89011 36.6492 8.81686 36.5905 8.74649C36.5314 8.67614 36.4692 8.60877 36.4039 8.54467C36.3383 8.48061 36.2695 8.41989 36.198 8.36274C36.1264 8.30558 36.052 8.25208 35.9752 8.20242C35.8983 8.15271 35.8189 8.10689 35.7373 8.06517C35.6558 8.02342 35.5723 7.9858 35.4873 7.95246C35.4023 7.91911 35.3155 7.89011 35.2273 7.86552C35.1395 7.84089 35.0502 7.82074 34.9602 7.80511C34.8702 7.78952 34.7795 7.77842 34.6883 7.77196C34.6236 7.76733 34.5589 7.76505 34.4942 7.76505V7.76489Z" fill="#757575"/>
<path d="M20.3384 0.0402142C19.0867 0.0381958 17.9698 0.0433851 16.9664 0.057513L14.2763 0.129594C13.4794 0.164193 12.7753 0.209313 12.1433 0.267699C11.8273 0.296819 11.5292 0.3294 11.2466 0.365296C10.9777 0.399187 10.7096 0.43865 10.4423 0.483656C10.1879 0.526906 9.9464 0.573612 9.71487 0.624356C9.48337 0.675103 9.26221 0.729884 9.04884 0.788703C8.84028 0.846218 8.63331 0.909484 8.42825 0.978422C8.22728 1.04618 8.03121 1.11797 7.83759 1.19467C7.45037 1.34806 7.07268 1.52018 6.68371 1.71307C6.38443 1.86156 6.10793 2.01192 5.84528 2.17107C5.58262 2.33023 5.33378 2.49832 5.09015 2.68141C4.83925 2.87088 4.5974 3.07207 4.36546 3.28431C4.12296 3.50516 3.87531 3.74806 3.61796 4.01953C3.29462 4.35875 3.01364 4.67503 2.76424 4.98541C2.63954 5.14053 2.52276 5.29394 2.41277 5.44819C2.30399 5.60019 2.2 5.75559 2.10095 5.91409C2.00292 6.07125 1.91008 6.23128 1.82127 6.39591C1.73108 6.56337 1.64585 6.73347 1.56567 6.90594C1.40161 7.25828 1.24851 7.63772 1.0957 8.06128C0.982336 8.37438 0.88082 8.69169 0.791374 9.01244C0.70012 9.34028 0.618958 9.68325 0.546586 10.0542C0.474217 10.4251 0.411074 10.824 0.35557 11.2651C0.295762 11.7487 0.247981 12.2337 0.212274 12.7196C0.171909 13.2538 0.138463 13.8418 0.111072 14.4961L0.0461995 16.6718L0.011312 19.324L0.0012207 22.5297L0.030774 27.1915L0.123038 30.7234L0.19411 32.103L0.282914 33.2464C0.311381 33.5545 0.346999 33.8617 0.389739 34.1683C0.428661 34.4405 0.47047 34.6786 0.515449 34.8848C0.606714 35.3039 0.714633 35.7192 0.838949 36.1298C0.95798 36.523 1.0941 36.9105 1.24693 37.2917C1.39715 37.6652 1.56149 38.0252 1.74025 38.3717C1.91901 38.7183 2.11219 39.0514 2.31979 39.3714C2.52738 39.6911 2.74939 39.998 2.98639 40.2917C3.22312 40.5855 3.47493 40.8664 3.74081 41.1342C4.00706 41.4023 4.2879 41.6573 4.58387 41.8998C4.88331 42.1452 5.19462 42.3758 5.51659 42.5905C5.81543 42.7902 6.11112 42.9733 6.40896 43.1411C6.70678 43.3092 7.00721 43.4614 7.31603 43.6002C7.62481 43.7386 7.9414 43.8633 8.27212 43.9755C8.60281 44.0877 8.94737 44.1873 9.31153 44.2758C9.67568 44.3645 10.0612 44.442 10.4692 44.5098C10.8771 44.5777 11.3132 44.6358 11.7792 44.6858C12.2451 44.7358 12.7422 44.777 13.2763 44.8117C13.8104 44.8464 14.3813 44.8739 14.9947 44.8961C15.9423 44.9305 17.3767 44.9505 19.0308 44.9583L24.3857 44.9473L29.4565 44.8764L31.3846 44.822L32.6405 44.7577C32.9102 44.7355 33.174 44.7095 33.4287 44.6792C33.6833 44.6489 33.9343 44.6142 34.179 44.5745C34.4233 44.5352 34.6624 44.4911 34.8971 44.442C35.1293 44.3936 35.3602 44.3395 35.5896 44.2802C35.8168 44.2223 36.0408 44.1567 36.2627 44.087C36.4843 44.0177 36.704 43.9423 36.9221 43.8614C37.1415 43.7802 37.3587 43.6936 37.574 43.602C37.7905 43.5095 38.0068 43.4111 38.224 43.3064C38.5574 43.1458 38.8258 43.0117 39.0615 42.8811C39.2833 42.7595 39.4968 42.6236 39.7008 42.4739C39.9021 42.3258 40.1021 42.157 40.3327 41.9445C40.5633 41.732 40.8249 41.4761 41.1483 41.1523C41.433 40.868 41.6727 40.6208 41.8796 40.3961C42.0865 40.1714 42.2608 39.9692 42.4136 39.7742C42.5593 39.5892 42.6949 39.3967 42.8202 39.1973C42.9424 39.0027 43.0549 38.8005 43.1693 38.5764C43.3418 38.2392 43.4952 37.9267 43.6324 37.6252C43.7658 37.3348 43.8877 37.0389 43.9977 36.7389C44.1061 36.4411 44.2002 36.1383 44.2793 35.8314C44.3605 35.5158 44.4305 35.1823 44.4912 34.8167C44.5515 34.4511 44.6027 34.0533 44.6471 33.6089C44.6915 33.1648 44.7293 32.6736 44.7624 32.122L44.8505 30.2699L44.9258 27.9666L44.9799 25.4005L45.0005 22.7174L44.9524 17.4475L44.888 15.0872L44.8002 13.0605L44.6905 11.4805C44.6508 11.0408 44.6077 10.6945 44.5624 10.4604C44.5118 10.2017 44.4555 9.94425 44.3933 9.68813C44.3327 9.43894 44.2662 9.19125 44.1937 8.94528C44.123 8.70563 44.0461 8.46781 43.9633 8.23209C43.8815 7.99928 43.7946 7.77134 43.7037 7.54834C43.613 7.32531 43.5146 7.1075 43.4124 6.89428C43.3099 6.68106 43.2027 6.47303 43.0902 6.26975C42.9774 6.0665 42.8602 5.86828 42.7374 5.67494C42.6149 5.48163 42.4871 5.29319 42.354 5.10981C42.2218 4.92703 42.0836 4.74844 41.9402 4.57425C41.7974 4.40106 41.6493 4.23241 41.4958 4.06853C41.3427 3.90491 41.1843 3.74616 41.0212 3.59253C40.8577 3.43884 40.6896 3.29006 40.5162 3.14619C40.3418 3.00184 40.1633 2.86295 39.9802 2.72971C39.7955 2.5951 39.6068 2.46617 39.414 2.34307C39.2187 2.21821 39.0199 2.09918 38.8174 1.98612C38.6118 1.87116 38.4024 1.76213 38.1905 1.65916C37.8383 1.48803 37.5127 1.33623 37.1933 1.20159C36.879 1.06796 36.5587 0.949271 36.2333 0.845937C35.9062 0.742859 35.5655 0.65449 35.1908 0.578228C34.8158 0.501965 34.4071 0.43839 33.9446 0.384328C33.4821 0.330268 32.9655 0.286588 32.3746 0.250259C31.784 0.21393 31.1194 0.185384 30.3607 0.162318L27.7822 0.104654L24.5188 0.0661623L20.3398 0.0405001L20.3384 0.0402142ZM22.5087 4.00497L28.5352 4.03928L30.8086 4.08309C31.4346 4.10069 31.9124 4.12131 32.1924 4.14509C32.5574 4.17581 32.9046 4.21428 33.2371 4.26044C33.5558 4.30447 33.8733 4.35922 34.1883 4.42463C34.4912 4.48806 34.7799 4.56013 35.0565 4.64144C35.3327 4.72275 35.5968 4.81388 35.8499 4.91463C36.1033 5.01541 36.3455 5.12625 36.5787 5.24766C36.8099 5.36813 37.0346 5.50069 37.2518 5.64481C37.468 5.78825 37.6765 5.94281 37.879 6.10931C38.0812 6.27581 38.2774 6.45428 38.469 6.64516C38.6715 6.84656 38.858 7.05169 39.0299 7.26331C39.2012 7.47366 39.3599 7.69409 39.5046 7.92344C39.6512 8.15606 39.783 8.39753 39.8999 8.64641C40.0193 8.90016 40.1265 9.16828 40.2227 9.45328C40.3193 9.73831 40.4049 10.0412 40.4808 10.3648C40.5605 10.708 40.6271 11.054 40.6808 11.4021C40.7383 11.7712 40.7877 12.1647 40.8296 12.5861C40.8711 13.0075 40.9058 13.4568 40.9343 13.9376C40.9571 14.3233 40.9771 14.8322 40.994 15.4332L41.0362 17.4824L41.0683 22.5022L41.0318 27.5171L40.9877 29.5605L40.9268 31.0467C40.8849 31.7427 40.8405 32.3277 40.7874 32.8367C40.7608 33.0914 40.7318 33.327 40.6999 33.548C40.6699 33.7567 40.6343 33.9645 40.5933 34.1714C40.5558 34.3602 40.5124 34.5477 40.4627 34.7339C40.4155 34.9111 40.3621 35.087 40.303 35.2611C40.2433 35.4358 40.1787 35.6086 40.1087 35.7792C40.0346 35.9598 39.9565 36.1383 39.8743 36.3152C39.8012 36.473 39.7243 36.6267 39.643 36.7761C39.5627 36.9242 39.4771 37.0692 39.3871 37.2114C39.2977 37.3523 39.204 37.4892 39.1058 37.6217C39.0083 37.7536 38.9062 37.882 38.7993 38.0067C38.693 38.1311 38.5821 38.2511 38.4668 38.3673C38.3515 38.4833 38.2318 38.5952 38.1077 38.7033C37.984 38.8114 37.8552 38.9155 37.7221 39.0155C37.5893 39.1155 37.4515 39.2114 37.3093 39.3033C37.1668 39.3955 37.0202 39.4836 36.8687 39.568C36.7171 39.652 36.5608 39.7323 36.4002 39.8089C36.2365 39.8867 36.0708 39.9595 35.9027 40.0273C35.7293 40.0973 35.554 40.1623 35.3768 40.2227C35.0162 40.3455 34.6362 40.4533 34.2358 40.5461C33.819 40.6427 33.398 40.7214 32.9743 40.7823C32.8112 40.8061 32.4368 40.8286 31.9005 40.8492L29.857 40.9061L24.0631 40.9814L17.9987 40.9908L15.6172 40.9655L14.0707 40.9173L12.9304 40.837C12.5764 40.8073 12.2471 40.7742 11.9386 40.7364C11.6301 40.6989 11.3428 40.657 11.0725 40.6095C10.8163 40.5655 10.5617 40.5123 10.3091 40.4511C10.0788 40.3952 9.85084 40.3298 9.62581 40.2555C9.40884 40.1833 9.20137 40.1039 8.99956 40.0167C8.79771 39.9295 8.60165 39.8339 8.40746 39.7295C8.21328 39.6252 8.02112 39.512 7.82678 39.3883C7.68018 39.2952 7.53846 39.2008 7.40209 39.1011C7.26571 39.0011 7.13393 38.9014 7.00709 38.797C6.88021 38.6927 6.7584 38.5852 6.6409 38.4745C6.52418 38.3642 6.4115 38.2498 6.303 38.1317C6.19487 38.0136 6.0915 37.8923 5.99231 37.7667C5.89275 37.6405 5.79787 37.5105 5.7079 37.3773C5.61656 37.242 5.53015 37.1036 5.44884 36.9623C5.36665 36.8195 5.28853 36.672 5.21428 36.5195C5.13878 36.3645 5.06834 36.207 5.00309 36.0473C4.93678 35.8845 4.8739 35.7167 4.81481 35.5436C4.69659 35.1967 4.59281 34.8277 4.50256 34.4342C4.41231 34.0408 4.33531 33.6227 4.27015 33.177C4.205 32.7317 4.15253 32.2592 4.11071 31.7573C4.07987 31.3877 4.05537 30.8117 4.03662 30.0851L3.9974 27.501L4.01181 20.9135L4.12528 14.6188L4.21178 12.401L4.26078 11.6679C4.27781 11.4722 4.2954 11.3271 4.3134 11.24C4.37281 10.9536 4.43262 10.687 4.49446 10.4375C4.55225 10.2021 4.61653 9.96831 4.68721 9.73644C4.7544 9.51759 4.82518 9.31259 4.90087 9.11841C4.97384 8.93028 5.05518 8.74553 5.14465 8.56469C5.232 8.38881 5.32587 8.22041 5.42778 8.0565C5.52971 7.89259 5.63971 7.73359 5.75965 7.57544C5.87959 7.41728 6.00875 7.26116 6.14931 7.10288C6.28987 6.94459 6.44168 6.78472 6.60631 6.61994C6.79818 6.42697 6.99796 6.24203 7.20515 6.06563C7.40081 5.89919 7.60481 5.74284 7.8164 5.59725C8.02443 5.45306 8.23781 5.32478 8.45996 5.20684C8.68212 5.08894 8.91306 4.98238 9.15596 4.88653C9.39887 4.79066 9.65406 4.70487 9.92434 4.62703C10.2083 4.54737 10.4955 4.47941 10.785 4.42331C11.0895 4.36366 11.4128 4.31159 11.7581 4.26619C12.1034 4.22078 12.4707 4.18156 12.8634 4.14753C13.1373 4.12391 13.6093 4.10284 14.2308 4.08512L16.4927 4.04044L22.5097 4.00366L22.5087 4.00497Z" fill="#757575"/>
</svg>
