<svg width="24" height="20" viewBox="0 0 24 20" fill="none" xmlns="http://www.w3.org/2000/svg">
<path d="M22.2857 0.666687H1.71429C1.25963 0.666687 0.823594 0.863353 0.502103 1.21342C0.180612 1.56349 0 2.03828 0 2.53335V17.4667C0 17.9618 0.180612 18.4366 0.502103 18.7866C0.823594 19.1367 1.25963 19.3334 1.71429 19.3334H22.2857C22.7404 19.3334 23.1764 19.1367 23.4979 18.7866C23.8194 18.4366 24 17.9618 24 17.4667V2.53335C24 2.03828 23.8194 1.56349 23.4979 1.21342C23.1764 0.863353 22.7404 0.666687 22.2857 0.666687V0.666687ZM20.4 2.53335L12 8.86135L3.6 2.53335H20.4ZM1.71429 17.4667V3.38269L11.5114 10.7654C11.6549 10.8737 11.8254 10.9318 12 10.9318C12.1746 10.9318 12.3451 10.8737 12.4886 10.7654L22.2857 3.38269V17.4667H1.71429Z" fill="#757575"/>
</svg>
